<?xml version="1.0" encoding="utf-8"?>
<!-- Generator: Adobe Illustrator 27.2.0, SVG Export Plug-In . SVG Version: 6.00 Build 0)  -->
<svg version="1.1" id="Layer_1" xmlns="http://www.w3.org/2000/svg" xmlns:xlink="http://www.w3.org/1999/xlink" x="0px" y="0px"
	 viewBox="0 0 381.9 91.6" style="enable-background:new 0 0 381.9 91.6;" xml:space="preserve">
<style type="text/css">
	.st0{fill:#2D2A26;}
	.st1{fill:#FF0600;}
</style>
<path class="st0" d="M80,64.2c1.2,8.2,8,12.1,15.8,12.1c8.6,0,14.5-6.7,18.9-6.7c3.6,0,6.9,3.6,6.9,7.2c0,7.2-14.9,14.2-27.3,14.2
	C75.5,90.9,63,77.2,63,58.8c0-16.9,12.3-32.4,29.9-32.4c18.1,0,30.1,16.5,30.1,30.4c0,5-2.2,7.4-7.3,7.4H80z M106.2,53.1
	c-0.9-7.3-5.6-12.8-13.4-12.8c-7.4,0-12.4,5.7-13.2,12.8C79.7,53.1,106.2,53.1,106.2,53.1z"/>
<path class="st0" d="M185.3,80.9c0,5.6-3.5,9.3-8.4,9.3c-4.6,0-7.3-2.6-8.4-7c-3.1,5.1-9.6,7.7-15.3,7.7
	c-16.8,0-27.5-15.7-27.5-31.5c0-16.2,8.9-33.1,26.9-33.1c5.8,0,11.5,2,15.9,5.8V9.4c0-5.6,3.5-9.3,8.4-9.3s8.4,3.7,8.4,9.3
	L185.3,80.9L185.3,80.9z M155.4,41.7c-8.7,0-13,9.2-13,17.1c0,7.8,4.3,16.8,13,16.8c9.2,0,13.1-9.3,13.1-17.4S164.4,41.7,155.4,41.7
	"/>
<path class="st0" d="M277.4,64.2c1.2,8.2,8,12.1,15.8,12.1c8.6,0,14.5-6.7,18.9-6.7c3.6,0,6.9,3.6,6.9,7.2C319,84,304.1,91,291.7,91
	c-18.8,0-31.3-13.7-31.3-32.2c0-16.9,12.3-32.4,30-32.4c18.1,0,30.1,16.5,30.1,30.4c0,5-2.2,7.4-7.3,7.4
	C313,64.2,277.4,64.2,277.4,64.2z M303.6,53.1c-0.9-7.3-5.6-12.8-13.4-12.8c-7.4,0-12.4,5.7-13.2,12.8H303.6z"/>
<path class="st0" d="M381.9,80.9c0,5.6-3.5,9.3-8.4,9.3c-4.6,0-7.3-2.6-8.4-7c-3.1,5.1-9.6,7.7-15.3,7.7
	c-16.8,0-27.5-15.7-27.5-31.5c0-16.2,8.9-33.1,26.9-33.1c5.8,0,11.5,2,15.9,5.8V9.4c0-5.6,3.5-9.3,8.4-9.3s8.4,3.7,8.4,9.3V80.9
	L381.9,80.9z M352.1,41.7c-8.7,0-13,9.2-13,17.1c0,7.8,4.3,16.8,13,16.8c9.2,0,13.1-9.3,13.1-17.4S361,41.7,352.1,41.7"/>
<path class="st0" d="M31.8,40.1H18.3V16.7h13.5c7.6,0,12.2,4.4,12.2,11.6S39.2,40.1,31.8,40.1 M62.9,76.4l-1.7-2.2l-17-22l0.6-0.2
	c5.3-1.7,14.6-6.2,17.4-17.1c0.6-2.1,0.9-4.3,0.9-6.6c0-0.1,0-0.2,0-0.4c0-0.1,0-0.2,0-0.3c0-0.3,0-0.6,0-0.9v-0.2
	c-0.4-8.9-3.3-15.7-8.8-20.1C48.9,2.1,41.4,0,31.8,0H9.4C3.4,0,0,3.5,0,9.5V81c0,5.8,3.6,9.5,9.1,9.5s9.1-3.7,9.1-9.5V53h6.9
	l23.1,33.8c1.8,2.5,4.7,3.6,6.8,3.7c0.3,0,0.5,0,0.8,0c4.1,0,8.7-3.2,9.1-8.6C65,80.1,64.4,78.2,62.9,76.4"/>
<g>
	<g>
		<path class="st1" d="M235.6,13.6c-1.8,2.1-6.3,7.4-6.3,7.4h-24.4c-2.7,0-4.9-2.8-4.9-6.3c0-3,2.1-6.3,4.7-6.3c0,0,28.9,0,30.5,0
			C237.5,8.4,237.7,11.1,235.6,13.6z M235.8,0.1c-5,0-31.5,0-31.5,0c-6.9,0-12.4,7-12.4,14.6c0,8.8,6.8,14.5,11.5,14.5h18.7
			l-22,25.8c0,0-7.6,8.8-9.4,13.8c-4.2,10.2,3.2,17.7,7.3,20.8c-9.3-11.5,6.6-27.6,6.6-27.6l36.7-43c0,0,3.3-3.6,3.3-7.9
			C244.7,4.9,240.8,0.1,235.8,0.1z"/>
	</g>
	<g>
		<path class="st1" d="M216,77.4c1.8-2.1,6.3-7.4,6.3-7.4h24.4c2.7,0,4.9,2.8,4.9,6.3c0,3-2.1,6.3-4.7,6.3c0,0-28.9,0-30.5,0
			C214.1,82.6,213.9,79.9,216,77.4z M215.8,90.9c5,0,31.5,0,31.5,0c6.9,0,12.4-7,12.4-14.6c0-8.8-6.8-14.5-11.5-14.5h-18.7l22-25.8
			c0,0,7.6-8.8,9.4-13.8c4.2-10.2-3.2-17.7-7.3-20.8C262.9,12.9,247,29,247,29l-36.7,43c0,0-3.3,3.6-3.3,7.9
			C206.9,86.1,210.7,90.9,215.8,90.9z"/>
	</g>
</g>
</svg>
