<?xml version="1.0" encoding="utf-8"?>
<!-- Generator: Adobe Illustrator 28.0.0, SVG Export Plug-In . SVG Version: 6.00 Build 0)  -->
<svg version="1.1" id="Layer_1" xmlns="http://www.w3.org/2000/svg" xmlns:xlink="http://www.w3.org/1999/xlink" x="0px" y="0px"
	 viewBox="0 0 262.3 381.2" style="enable-background:new 0 0 262.3 381.2;" xml:space="preserve">
<style type="text/css">
	.st0{fill:url(#SVGID_1_);}
	.st1{fill:url(#SVGID_00000155856007831655878000000018326892576855493771_);}
	.st2{fill:url(#SVGID_00000011721636443993970290000005413113652105204910_);}
	.st3{fill:url(#SVGID_00000046320820377890003110000002542589448756127140_);}
	.st4{stroke:#231815;stroke-width:0.1978;stroke-miterlimit:17.4654;}
</style>
<linearGradient id="SVGID_1_" gradientUnits="userSpaceOnUse" x1="53.2891" y1="347.569" x2="-2.6591" y2="403.5172" gradientTransform="matrix(1.7465 0 0 -1.7465 130.0631 822.9649)">
	<stop  offset="0" style="stop-color:#4FEDF9"/>
	<stop  offset="1" style="stop-color:#124596"/>
</linearGradient>
<path class="st0" d="M171.9,99.2c-37.6,0-68.1,29.3-68.1,65.5s30.5,65.5,68.1,65.5c37.6,0,68.1-29.3,68.1-65.5
	S209.5,99.2,171.9,99.2z M172.9,222.7c-31.9,0-57.8-24.9-57.8-55.5s25.9-55.5,57.8-55.5c31.9,0,57.8,24.9,57.8,55.5
	S204.8,222.7,172.9,222.7L172.9,222.7z"/>
<linearGradient id="SVGID_00000033370917542731943000000014977268635040939935_" gradientUnits="userSpaceOnUse" x1="14.8965" y1="396.6006" x2="48.8458" y2="362.6513" gradientTransform="matrix(1.7465 0 0 -1.7465 130.0631 822.9649)">
	<stop  offset="0" style="stop-color:#52DBD3"/>
	<stop  offset="0.5211" style="stop-color:#38ACF9"/>
	<stop  offset="1" style="stop-color:#124596"/>
</linearGradient>
<path style="fill:url(#SVGID_00000033370917542731943000000014977268635040939935_);" d="M184.2,106.5c-29.8,0-54,23.3-54,52
	s24.2,52,54,52c29.8,0,54-23.3,54-52S214.1,106.5,184.2,106.5L184.2,106.5z M186.9,201.7c-26.2,0-47.5-20.4-47.5-45.6
	s21.2-45.6,47.5-45.6s47.5,20.4,47.5,45.6S213.1,201.7,186.9,201.7L186.9,201.7z"/>
<linearGradient id="SVGID_00000072964790227111687380000003716306167952000903_" gradientUnits="userSpaceOnUse" x1="11.0854" y1="352.0792" x2="42.6874" y2="383.6812" gradientTransform="matrix(1.7465 0 0 -1.7465 130.0631 822.9649)">
	<stop  offset="0" style="stop-color:#4FEDF9"/>
	<stop  offset="1" style="stop-color:#124596"/>
</linearGradient>
<path style="fill:url(#SVGID_00000072964790227111687380000003716306167952000903_);" d="M178.2,129.7c-28.5,0-51.5,22.2-51.5,49.5
	c0,27.4,23.1,49.5,51.5,49.5c28.5,0,51.5-22.2,51.5-49.5C229.8,151.9,206.7,129.7,178.2,129.7L178.2,129.7z M175.3,219.8
	c-24.7,0-44.8-19.3-44.8-43c0-23.8,20-43,44.8-43c24.7,0,44.8,19.3,44.8,43C220,200.6,200,219.8,175.3,219.8z"/>
<linearGradient id="SVGID_00000059296244821168092050000003329388528192345227_" gradientUnits="userSpaceOnUse" x1="34.926" y1="353.228" x2="6.0812" y2="382.0728" gradientTransform="matrix(1.7465 0 0 -1.7465 130.0631 822.9649)">
	<stop  offset="0" style="stop-color:#4FEDF9"/>
	<stop  offset="1" style="stop-color:#124596"/>
</linearGradient>
<path style="fill:url(#SVGID_00000059296244821168092050000003329388528192345227_);" d="M157.9,123.4c-28.4,0-51.5,22.2-51.5,49.5
	c0,27.3,23.1,49.5,51.5,49.5c28.4,0,51.5-22.2,51.5-49.5C209.4,145.5,186.3,123.4,157.9,123.4L157.9,123.4z M161.7,207.2
	c-21.9,0-39.6-17.1-39.6-38.1s17.8-38.1,39.6-38.1c21.9,0,39.6,17.1,39.6,38.1S183.6,207.2,161.7,207.2z"/>
<path class="st4" d="M122.9,274.5c0,3.8,2.1,5.6,6.1,5.6c1.8,0,3.7-0.6,3.7-0.6c0.6-0.2,1.4,0.1,1.7,0.7l3.2,6.1
	c0.3,0.6,0.1,1.3-0.4,1.8c0,0-2.9,2.4-11,2.4c-9,0-15.7-4.6-15.7-12.7c0-8.1,0-34.7,0-34.7c0-0.6,0.5-1.1,1.2-1.1h10
	c0.6,0,1.2,0.5,1.2,1.1C122.9,243.1,122.9,266.4,122.9,274.5L122.9,274.5z"/>
<path d="M238.7,279c0,0-16.9,0-16.9,0c0,0,13.8-14.4,14.8-15.2c1.4-1.2,2.5-3.1,2.5-5.3c0-3.8-2.8-6.8-7.3-6.8c-6.6,0-16.7,0-27.1,0
	v5.1c-3.4-4.2-9.6-6.4-16.8-6.4c-11,0-19.5,6.9-19.5,14.3v23.8c0,0.6,0.5,1.1,1.2,1.1h9.6c0.6,0,1.2-0.5,1.2-1.1c0,0,0-15.4,0-20.7
	c0-3,1.8-6.5,7.5-6.5c5.7,0,7.5,3.7,7.5,7.6v19.6c0,0.6,0.5,1.1,1.2,1.1l37.5,0c0.6,0,1.4-0.5,1.7-1l4.1-8.2
	C240.2,279.8,240,279,238.7,279L238.7,279z M222.6,262.3c0.6,0,0.8,0.4,0.4,0.8l-15.6,15.5c0-5.2,0-11,0-13.9c0-0.8-0.1-1.6-0.2-2.3
	H222.6z"/>
<path d="M167.7,251.6c-3.6,0-6.2,1.1-7.6,4c-3.3,7.2-9.6,20.1-9.6,20.1c-0.3,0.6-0.7,0.5-0.9,0c0,0-4.5-11.3-8.2-20
	c-1.2-3-4-4-7.6-4c-2.6,0-6.6,0-10.9,0c0-4.9,0-8.5,0-8.5c0-0.6-0.5-1.1-1.2-1.1h-10c-0.6,0-1.2,0.5-1.2,1.1v8.5c-3.5,0-5.8,0-5.8,0
	c-1.3,0-1.4,1.1-1.2,1.7l3.8,8c0.3,0.6,1,1,1.7,1h1.5v15.6c0,8.1,6.6,12.7,15.7,12.7c8.1,0,11-2.4,11-2.4c0.5-0.4,0.6-1.2,0.4-1.8
	l-3.2-6.1c-0.3-0.6-1-0.9-1.7-0.7c0,0-1.9,0.6-3.7,0.6c-4,0-6.1-1.8-6.1-5.6c0-2.8,0-7.4,0-12.2h6.8c0.6,0,1.4,0.5,1.7,1l12.5,25.2
	c0.3,0.6,1,1,1.7,1h8.9c0.6,0,1.4-0.5,1.7-1l12.6-25.2c0.3-0.6,1-1,1.7-1h1.3v-10.7C170.2,251.6,168.9,251.6,167.7,251.6z"/>
</svg>
