<?xml version="1.0" encoding="utf-8"?>
<!-- Generator: Adobe Illustrator 28.0.0, SVG Export Plug-In . SVG Version: 6.00 Build 0)  -->
<svg version="1.1" id="Layer_1" xmlns="http://www.w3.org/2000/svg" xmlns:xlink="http://www.w3.org/1999/xlink" x="0px" y="0px"
	 viewBox="0 0 57 76" style="enable-background:new 0 0 57 76;" xml:space="preserve">
<style type="text/css">
	.st0{fill:url(#SVGID_1_);}
	.st1{fill:url(#SVGID_00000086658566421492276260000007819039599811527586_);}
	.st2{fill:url(#SVGID_00000149358362973450900520000011557927471398666408_);}
	.st3{fill:url(#SVGID_00000052805014515570568520000011445113652752282778_);}
	.st4{stroke:#231815;stroke-width:0.1978;stroke-miterlimit:17.4654;}
</style>
<linearGradient id="SVGID_1_" gradientUnits="userSpaceOnUse" x1="-48.612" y1="446.2262" x2="-66.4895" y2="464.1038" gradientTransform="matrix(1.7465 0 0 -1.7465 130.0631 822.9649)">
	<stop  offset="0" style="stop-color:#4FEDF9"/>
	<stop  offset="1" style="stop-color:#124596"/>
</linearGradient>
<path class="st0" d="M28.8,5.8c-11.7,0-21.2,9.6-21.2,21.5s9.5,21.5,21.2,21.5c11.7,0,21.2-9.6,21.2-21.5S40.5,5.8,28.8,5.8z
	 M29.1,46.3c-9.9,0-18-8.2-18-18.2s8.1-18.2,18-18.2c9.9,0,18,8.2,18,18.2S39,46.3,29.1,46.3L29.1,46.3z"/>
<linearGradient id="SVGID_00000132048795467989549510000010187807844218527152_" gradientUnits="userSpaceOnUse" x1="-60.9368" y1="461.9242" x2="-50.0887" y2="451.0761" gradientTransform="matrix(1.7465 0 0 -1.7465 130.0631 822.9649)">
	<stop  offset="0" style="stop-color:#52DBD3"/>
	<stop  offset="0.5211" style="stop-color:#38ACF9"/>
	<stop  offset="1" style="stop-color:#124596"/>
</linearGradient>
<path style="fill:url(#SVGID_00000132048795467989549510000010187807844218527152_);" d="M32.6,8.1c-9.3,0-16.8,7.6-16.8,17
	s7.5,17,16.8,17c9.3,0,16.8-7.6,16.8-17S41.9,8.1,32.6,8.1L32.6,8.1z M33.5,39.4c-8.2,0-14.8-6.7-14.8-15s6.6-15,14.8-15
	s14.8,6.7,14.8,15S41.6,39.4,33.5,39.4L33.5,39.4z"/>
<linearGradient id="SVGID_00000172406635555168248640000016976532044016598668_" gradientUnits="userSpaceOnUse" x1="-62.127" y1="447.5963" x2="-52.029" y2="457.6944" gradientTransform="matrix(1.7465 0 0 -1.7465 130.0631 822.9649)">
	<stop  offset="0" style="stop-color:#4FEDF9"/>
	<stop  offset="1" style="stop-color:#124596"/>
</linearGradient>
<path style="fill:url(#SVGID_00000172406635555168248640000016976532044016598668_);" d="M30.8,15.8c-8.9,0-16,7.3-16,16.2
	c0,9,7.2,16.2,16,16.2c8.9,0,16-7.3,16-16.2C46.8,23,39.6,15.8,30.8,15.8L30.8,15.8z M29.8,45.3c-7.7,0-13.9-6.3-13.9-14.1
	c0-7.8,6.2-14.1,13.9-14.1c7.7,0,13.9,6.3,13.9,14.1C43.8,39,37.5,45.3,29.8,45.3z"/>
<linearGradient id="SVGID_00000083811254415791669070000002263630852906227612_" gradientUnits="userSpaceOnUse" x1="-54.4149" y1="447.9944" x2="-63.6319" y2="457.2115" gradientTransform="matrix(1.7465 0 0 -1.7465 130.0631 822.9649)">
	<stop  offset="0" style="stop-color:#4FEDF9"/>
	<stop  offset="1" style="stop-color:#124596"/>
</linearGradient>
<path style="fill:url(#SVGID_00000083811254415791669070000002263630852906227612_);" d="M24.4,13.7c-8.9,0-16,7.3-16,16.2
	c0,9,7.2,16.2,16,16.2c8.9,0,16-7.3,16-16.2C40.5,21,33.3,13.7,24.4,13.7L24.4,13.7z M25.6,41.2c-6.8,0-12.3-5.6-12.3-12.5
	s5.5-12.5,12.3-12.5c6.8,0,12.3,5.6,12.3,12.5S32.4,41.2,25.6,41.2z"/>
<path class="st4" d="M13.5,63.3c0,1.2,0.6,1.8,1.9,1.8c0.6,0,1.2-0.2,1.2-0.2c0.2-0.1,0.4,0,0.5,0.2l1,2c0.1,0.2,0,0.4-0.1,0.6
	c0,0-0.9,0.8-3.4,0.8c-2.8,0-4.9-1.5-4.9-4.2c0-2.7,0-11.4,0-11.4c0-0.2,0.2-0.4,0.4-0.4h3.1c0.2,0,0.4,0.2,0.4,0.4
	C13.5,53,13.5,60.6,13.5,63.3L13.5,63.3z"/>
<path d="M49.6,64.7c0,0-5.3,0-5.3,0c0,0,4.3-4.7,4.6-5c0.4-0.4,0.8-1,0.8-1.7c0-1.2-0.9-2.2-2.3-2.2c-2.1,0-5.2,0-8.5,0v1.7
	c-1.1-1.4-3-2.1-5.2-2.1c-3.4,0-6.1,2.3-6.1,4.7v7.8c0,0.2,0.2,0.4,0.4,0.4h3c0.2,0,0.4-0.2,0.4-0.4c0,0,0-5.1,0-6.8
	c0-1,0.6-2.1,2.3-2.1c1.8,0,2.3,1.2,2.3,2.5v6.4c0,0.2,0.2,0.4,0.4,0.4l11.7,0c0.2,0,0.4-0.1,0.5-0.3l1.3-2.7
	C50.1,65,50,64.7,49.6,64.7L49.6,64.7z M44.6,59.3c0.2,0,0.3,0.1,0.1,0.3l-4.9,5.1c0-1.7,0-3.6,0-4.6c0-0.3,0-0.5-0.1-0.8H44.6z"/>
<path d="M27.5,55.8c-1.1,0-1.9,0.3-2.4,1.3c-1,2.4-3,6.6-3,6.6c-0.1,0.2-0.2,0.2-0.3,0c0,0-1.4-3.7-2.6-6.6c-0.4-1-1.2-1.3-2.4-1.3
	c-0.8,0-2.1,0-3.4,0c0-1.6,0-2.8,0-2.8c0-0.2-0.2-0.4-0.4-0.4h-3.1c-0.2,0-0.4,0.2-0.4,0.4v2.8c-1.1,0-1.8,0-1.8,0
	c-0.4,0-0.4,0.4-0.4,0.5l1.2,2.6c0.1,0.2,0.3,0.3,0.5,0.3h0.5v5.1c0,2.7,2.1,4.2,4.9,4.2c2.5,0,3.4-0.8,3.4-0.8
	c0.2-0.1,0.2-0.4,0.1-0.6l-1-2c-0.1-0.2-0.3-0.3-0.5-0.2c0,0-0.6,0.2-1.2,0.2c-1.3,0-1.9-0.6-1.9-1.8c0-0.9,0-2.4,0-4h2.1
	c0.2,0,0.4,0.2,0.5,0.3l3.9,8.3c0.1,0.2,0.3,0.3,0.5,0.3h2.8c0.2,0,0.4-0.2,0.5-0.3l3.9-8.3c0.1-0.2,0.3-0.3,0.5-0.3h0.4v-3.5
	C28.3,55.8,27.8,55.8,27.5,55.8z"/>
</svg>
