<?xml version="1.0" encoding="utf-8"?>
<!-- Generator: Adobe Illustrator 28.0.0, SVG Export Plug-In . SVG Version: 6.00 Build 0)  -->
<svg version="1.1" id="Layer_1" xmlns="http://www.w3.org/2000/svg" xmlns:xlink="http://www.w3.org/1999/xlink" x="0px" y="0px"
	 viewBox="0 0 210.3 153" style="enable-background:new 0 0 110.3 153;" xml:space="preserve">
<style type="text/css">
	.st0{fill:url(#SVGID_1_);}
	.st1{fill:url(#SVGID_00000139980785798936005870000007392413768816586650_);}
	.st2{fill:url(#SVGID_00000059279058686533260070000001419440639970354357_);}
	.st3{fill:url(#SVGID_00000063599578968795112450000014001473538616335239_);}
	.st4{stroke:#231815;stroke-width:0.1978;stroke-miterlimit:17.4654;}
</style>
<linearGradient id="SVGID_1_" gradientUnits="userSpaceOnUse" x1="-160.5883" y1="245.0994" x2="-202.0452" y2="203.6426" gradientTransform="matrix(1.7465 0 0 1.7465 373.4221 -337.0596)">
	<stop  offset="0" style="stop-color:#4FEDF9"/>
	<stop  offset="1" style="stop-color:#124596"/>
</linearGradient>
<path class="st0" d="M55,4.2C27.3,4.2,4.8,26,4.8,53s22.5,48.8,50.2,48.8S105.2,80,105.2,53S82.7,4.2,55,4.2z M55.7,96.3
	c-23.5,0-42.6-18.6-42.6-41.4s19.1-41.4,42.6-41.4s42.6,18.6,42.6,41.4S79.2,96.3,55.7,96.3L55.7,96.3z"/>
<linearGradient id="SVGID_00000127001608337076224850000011782334913459758983_" gradientUnits="userSpaceOnUse" x1="-189.0809" y1="208.7642" x2="-163.9248" y2="233.9203" gradientTransform="matrix(1.7465 0 0 1.7465 373.4221 -337.0596)">
	<stop  offset="0" style="stop-color:#52DBD3"/>
	<stop  offset="0.5211" style="stop-color:#38ACF9"/>
	<stop  offset="1" style="stop-color:#124596"/>
</linearGradient>
<path style="fill:url(#SVGID_00000127001608337076224850000011782334913459758983_);" d="M64.1,9.6c-22,0-39.8,17.4-39.8,38.8
	s17.8,38.8,39.8,38.8s39.8-17.4,39.8-38.8S86.1,9.6,64.1,9.6L64.1,9.6z M66,80.6c-19.3,0-35-15.2-35-34s15.6-34,35-34s35,15.2,35,34
	S85.3,80.6,66,80.6L66,80.6z"/>
<linearGradient id="SVGID_00000127764359874569220580000012655132539900686242_" gradientUnits="userSpaceOnUse" x1="-191.8946" y1="241.7797" x2="-168.4781" y2="218.3632" gradientTransform="matrix(1.7465 0 0 1.7465 373.4221 -337.0596)">
	<stop  offset="0" style="stop-color:#4FEDF9"/>
	<stop  offset="1" style="stop-color:#124596"/>
</linearGradient>
<path style="fill:url(#SVGID_00000127764359874569220580000012655132539900686242_);" d="M59.6,26.9c-21,0-37.9,16.6-37.9,36.9
	c0,20.4,17,36.9,37.9,36.9c21,0,37.9-16.6,37.9-36.9C97.6,43.5,80.6,26.9,59.6,26.9L59.6,26.9z M57.5,94.1c-18.2,0-33-14.4-33-32.1
	c0-17.7,14.7-32.1,33-32.1c18.2,0,33,14.4,33,32.1C90.4,79.8,75.7,94.1,57.5,94.1z"/>
<linearGradient id="SVGID_00000069390279367574161040000014879567945056021672_" gradientUnits="userSpaceOnUse" x1="-174.1586" y1="240.9268" x2="-195.5322" y2="219.5532" gradientTransform="matrix(1.7465 0 0 1.7465 373.4221 -337.0596)">
	<stop  offset="0" style="stop-color:#4FEDF9"/>
	<stop  offset="1" style="stop-color:#124596"/>
</linearGradient>
<path style="fill:url(#SVGID_00000069390279367574161040000014879567945056021672_);" d="M44.7,22.2c-20.9,0-37.9,16.6-37.9,36.9
	s17,36.9,37.9,36.9s37.9-16.6,37.9-36.9C82.6,38.7,65.6,22.2,44.7,22.2L44.7,22.2z M47.5,84.7c-16.1,0-29.2-12.8-29.2-28.4
	s13.1-28.4,29.2-28.4c16.1,0,29.2,12.8,29.2,28.4S63.6,84.7,47.5,84.7z"/>
<path class="st4" d="M18.9,134.9c0,2.8,1.5,4.2,4.5,4.2c1.3,0,2.7-0.4,2.7-0.4c0.4-0.1,1,0.1,1.3,0.5l2.4,4.5c0.2,0.4,0.1,1-0.3,1.3
	c0,0-2.1,1.8-8.1,1.8c-6.6,0-11.6-3.4-11.6-9.5c0-6,0-25.9,0-25.9c0-0.4,0.4-0.8,0.9-0.8H18c0.4,0,0.9,0.4,0.9,0.8
	C18.9,111.5,18.9,128.9,18.9,134.9L18.9,134.9z"/>
<path d="M104.2,138.3H91.7c0,0,10.2-10.7,10.9-11.3c1-0.9,1.8-2.3,1.8-4c0-2.8-2.1-5.1-5.4-5.1c-4.9,0-12.3,0-20,0v3.8
	c-2.5-3.1-7.1-4.8-12.4-4.8c-8.1,0-14.4,5.1-14.4,10.7v17.7c0,0.4,0.4,0.8,0.9,0.8h7.1c0.4,0,0.9-0.4,0.9-0.8c0,0,0-11.5,0-15.4
	c0-2.2,1.3-4.8,5.5-4.8c4.2,0,5.5,2.8,5.5,5.7v14.6c0,0.4,0.4,0.8,0.9,0.8h27.6c0.4,0,1-0.4,1.3-0.7l3-6.1
	C105.3,138.9,105.2,138.3,104.2,138.3L104.2,138.3z M92.3,125.8c0.4,0,0.6,0.3,0.3,0.6L81.1,138c0-3.9,0-8.2,0-10.4
	c0-0.6-0.1-1.2-0.1-1.7L92.3,125.8L92.3,125.8z"/>
<path d="M51.9,117.8c-2.7,0-4.6,0.8-5.6,3c-2.4,5.4-7.1,15-7.1,15c-0.2,0.4-0.5,0.4-0.7,0c0,0-3.3-8.4-6-14.9c-0.9-2.2-2.9-3-5.6-3
	c-1.9,0-4.9,0-8,0c0-3.7,0-6.3,0-6.3c0-0.4-0.4-0.8-0.9-0.8h-7.4c-0.4,0-0.9,0.4-0.9,0.8v6.3c-2.6,0-4.3,0-4.3,0c-1,0-1,0.8-0.9,1.3
	l2.8,6c0.2,0.4,0.7,0.7,1.3,0.7h1.1v11.6c0,6,4.9,9.5,11.6,9.5c6,0,8.1-1.8,8.1-1.8c0.4-0.3,0.4-0.9,0.3-1.3l-2.4-4.5
	c-0.2-0.4-0.7-0.7-1.3-0.5c0,0-1.4,0.4-2.7,0.4c-2.9,0-4.5-1.3-4.5-4.2c0-2.1,0-5.5,0-9.1h5c0.4,0,1,0.4,1.3,0.7l9.2,18.8
	c0.2,0.4,0.7,0.7,1.3,0.7h6.6c0.4,0,1-0.4,1.3-0.7l9.3-18.8c0.2-0.4,0.7-0.7,1.3-0.7h1v-8C53.7,117.8,52.8,117.8,51.9,117.8z"/>
</svg>
